<?xml version="1.0" standalone="no"?>
<!DOCTYPE svg PUBLIC "-//W3C//DTD SVG 20010904//EN"
 "http://www.w3.org/TR/2001/REC-SVG-20010904/DTD/svg10.dtd">
<svg version="1.0" xmlns="http://www.w3.org/2000/svg"
 width="512.000000pt" height="512.000000pt" viewBox="0 0 512.000000 512.000000"
 preserveAspectRatio="xMidYMid meet">
<metadata>
Created by potrace 1.11, written by Peter Selinger 2001-2013
</metadata>
<g transform="translate(0.000000,512.000000) scale(0.100000,-0.100000)"
fill="#000000" stroke="none">
<path d="M1140 4508 l-1 -613 -51 -55 c-28 -30 -85 -91 -125 -134 -141 -150
-235 -278 -302 -414 -37 -73 -82 -201 -95 -267 -4 -16 -9 -41 -13 -55 -4 -14
-9 -688 -10 -1497 l-4 -1473 1051 0 1051 0 -4 1483 -3 1482 -22 82 c-31 119
-75 227 -128 318 -48 81 -144 211 -199 270 -51 53 -202 219 -224 244 -21 24
-21 31 -21 633 l0 608 -450 0 -450 0 0 -612z"/>
<path d="M2959 3298 c-3 -10 -9 -51 -14 -93 -3 -27 -10 -77 -15 -110 -5 -33
-12 -87 -15 -120 -3 -33 -8 -67 -10 -75 -4 -14 -10 -57 -20 -140 -9 -76 -26
-197 -29 -216 -2 -10 -7 -48 -10 -84 -4 -36 -15 -121 -25 -190 -10 -69 -16
-167 -15 -218 3 -85 33 -243 55 -281 5 -9 20 -41 34 -71 29 -64 36 -76 92
-150 117 -156 287 -270 475 -318 l73 -19 3 -457 2 -456 -300 0 -300 0 0 -150
0 -150 750 0 750 0 0 150 0 150 -300 0 -300 0 2 458 3 457 25 3 c42 5 152 43
215 75 231 115 402 326 466 576 32 121 34 242 10 421 -12 85 -35 254 -51 375
-17 121 -32 236 -35 255 -32 231 -45 330 -47 353 l-2 27 -733 0 c-403 0 -733
-1 -734 -2z"/>
</g>
</svg>
